<svg width="34" height="22" viewBox="0 0 34 22" fill="none" xmlns="http://www.w3.org/2000/svg">
<path d="M8 11C8 10.4477 8.44772 10 9 10H33C33.5523 10 34 10.4477 34 11C34 11.5523 33.5523 12 33 12H9C8.44772 12 8 11.5523 8 11Z" fill="url(#paint0_linear_2228_477)"/>
<path d="M14 21C14 20.4477 14.4477 20 15 20H33C33.5523 20 34 20.4477 34 21C34 21.5523 33.5523 22 33 22H15C14.4477 22 14 21.5523 14 21Z" fill="url(#paint1_linear_2228_477)"/>
<path d="M0 1C0 0.447715 0.447715 0 1 0H33C33.5523 0 34 0.447715 34 1C34 1.55228 33.5523 2 33 2H1C0.447716 2 0 1.55228 0 1Z" fill="url(#paint2_linear_2228_477)"/>
<defs>
<linearGradient id="paint0_linear_2228_477" x1="19.5" y1="3.49999" x2="24.5" y2="18" gradientUnits="userSpaceOnUse">
<stop stop-color="#61DAFB"/>
<stop offset="0.5" stop-color="#9BF0AF"/>
<stop offset="1" stop-color="#F4A5A7"/>
</linearGradient>
<linearGradient id="paint1_linear_2228_477" x1="19.5" y1="3.49999" x2="24.5" y2="18" gradientUnits="userSpaceOnUse">
<stop stop-color="#61DAFB"/>
<stop offset="0.5" stop-color="#9BF0AF"/>
<stop offset="1" stop-color="#F4A5A7"/>
</linearGradient>
<linearGradient id="paint2_linear_2228_477" x1="19.5" y1="3.49999" x2="24.5" y2="18" gradientUnits="userSpaceOnUse">
<stop stop-color="#61DAFB"/>
<stop offset="0.5" stop-color="#9BF0AF"/>
<stop offset="1" stop-color="#F4A5A7"/>
</linearGradient>
</defs>
</svg>
